<?xml version="1.0" encoding="UTF-8" standalone="no"?>
<svg
   xmlns:dc="http://purl.org/dc/elements/1.1/"
   xmlns:cc="http://creativecommons.org/ns#"
   xmlns:rdf="http://www.w3.org/1999/02/22-rdf-syntax-ns#"
   xmlns:svg="http://www.w3.org/2000/svg"
   xmlns="http://www.w3.org/2000/svg"
   xmlns:sodipodi="http://sodipodi.sourceforge.net/DTD/sodipodi-0.dtd"
   xmlns:inkscape="http://www.inkscape.org/namespaces/inkscape"
   inkscape:version="1.0 (4035a4fb49, 2020-05-01)"
   sodipodi:docname="logo.svg"
   id="svg32"
   preserveAspectRatio="xMidYMid meet"
   viewBox="0 0 1101.6 523"
   height="523pt"
   width="1101.6pt"
   version="1.0">
  <defs
     id="defs36" />
  <sodipodi:namedview
     fit-margin-bottom="0"
     fit-margin-right="0"
     fit-margin-left="0"
     fit-margin-top="0"
     inkscape:current-layer="g30"
     inkscape:window-maximized="1"
     inkscape:window-y="-8"
     inkscape:window-x="-8"
     inkscape:cy="70.666658"
     inkscape:cx="853.46667"
     inkscape:zoom="0.43007813"
     showgrid="false"
     id="namedview34"
     inkscape:window-height="1017"
     inkscape:window-width="1920"
     inkscape:pageshadow="2"
     inkscape:pageopacity="0"
     guidetolerance="10"
     gridtolerance="10"
     objecttolerance="10"
     borderopacity="1"
     bordercolor="#666666"
     pagecolor="#ffffff" />
  <metadata
     id="metadata24">
Created by potrace 1.15, written by Peter Selinger 2001-2017
<rdf:RDF>
  <cc:Work
     rdf:about="">
    <dc:format>image/svg+xml</dc:format>
    <dc:type
       rdf:resource="http://purl.org/dc/dcmitype/StillImage" />
    <dc:title></dc:title>
  </cc:Work>
</rdf:RDF>
</metadata>
  <g
     id="g30"
     stroke="none"
     fill="#000000"
     transform="matrix(0.1,0,0,-0.1,0.1,523)">
    <path
       style="fill:#ffffff"
       id="path28"
       d="M 3170,5095 3035,4960 H 1517 -1 l 48,-61 c 223,-285 608,-677 868,-885 221,-176 470,-329 657,-403 167,-66 529,-157 798,-200 330,-54 677,-87 1058,-101 304,-11 429,-26 589,-71 352,-99 574,-294 644,-567 26,-103 26,-262 -1,-368 -41,-161 -160,-356 -337,-550 C 4079,1486 3618,1147 3150,891 3046,834 3022,815 2898,692 L 2760,555 V 278 0 h 684 684 l 57,34 c 183,111 570,192 1080,227 242,16 862,13 1110,-6 344,-26 600,-68 800,-132 109,-35 238,-93 250,-113 4,-7 237,-10 701,-10 h 694 v 274 274 l -93,86 c -319,293 -692,571 -977,726 -189,102 -290,198 -388,365 -107,181 -189,484 -193,702 -1,95 34,210 117,383 214,446 585,774 1050,929 271,91 420,109 954,121 391,9 554,17 765,41 327,36 583,108 661,186 l 34,34 v 279 280 l 28,6 c 82,18 105,27 144,57 24,18 54,53 68,77 23,42 25,55 25,180 0,155 -8,176 -78,207 -40,17 -181,18 -3837,21 l -3795,2 z" />
  </g>
</svg>
